<?xml version="1.0" encoding="UTF-8"?>
<!DOCTYPE svg PUBLIC "-//W3C//DTD SVG 1.1//EN" "http://www.w3.org/Graphics/SVG/1.1/DTD/svg11.dtd">
<svg xmlns="http://www.w3.org/2000/svg" version="1.1" width="128px" height="128px" style="shape-rendering:geometricPrecision; text-rendering:geometricPrecision; image-rendering:optimizeQuality; fill-rule:evenodd; clip-rule:evenodd" xmlns:xlink="http://www.w3.org/1999/xlink">
<g><path style="opacity:1" fill="#89c8d3" d="M 127.5,53.5 C 127.5,61.1667 127.5,68.8333 127.5,76.5C 121.997,100.173 107.997,116.673 85.5,126C 82.4718,127.14 80.3051,126.306 79,123.5C 78.6667,115.5 78.3333,107.5 78,99.5C 77.4641,97.1311 76.2974,95.1311 74.5,93.5C 96.8366,90.5023 106.337,77.8356 103,55.5C 101.421,51.3448 99.5878,47.3448 97.5,43.5C 99.2389,37.8097 98.5722,32.4764 95.5,27.5C 89.4658,29.0195 83.7991,31.3529 78.5,34.5C 68.5,31.8333 58.5,31.8333 48.5,34.5C 43.2009,31.3529 37.5342,29.0195 31.5,27.5C 30.1936,28.9122 29.3603,30.5789 29,32.5C 28.6369,36.866 28.6369,41.1994 29,45.5C 22.4071,56.4007 21.7405,67.7341 27,79.5C 33.3222,87.9153 41.8222,92.582 52.5,93.5C 50.1748,96.3 48.5081,99.4666 47.5,103C 42.3297,105.194 37.3297,104.86 32.5,102C 29.813,98.3167 26.813,94.9834 23.5,92C 21.5497,90.5039 19.5497,90.3373 17.5,91.5C 19.3868,93.0404 21.2201,94.7071 23,96.5C 25.1323,100.91 27.6323,105.077 30.5,109C 36.1698,112.334 42.1698,113.168 48.5,111.5C 48.6657,115.846 48.499,120.179 48,124.5C 45.0622,126.869 41.8956,127.036 38.5,125C 17.521,115.194 4.52098,99.0269 -0.5,76.5C -0.5,68.8333 -0.5,61.1667 -0.5,53.5C 8.09404,20.5814 29.4274,2.91474 63.5,0.5C 97.5726,2.91474 118.906,20.5814 127.5,53.5 Z"/></g>
</svg>
