<svg width="129" height="129" viewBox="0 0 129 129" fill="none" xmlns="http://www.w3.org/2000/svg">
<rect width="129" height="128" rx="13" fill="#11111E"/>
<mask id="mask0_1_47" style="mask-type:alpha" maskUnits="userSpaceOnUse" x="0" y="0" width="129" height="129">
<path d="M129 64.5C129 100.122 100.122 129 64.5 129C28.8776 129 0 100.122 0 64.5C0 28.8776 28.8776 0 64.5 0C100.122 0 129 28.8776 129 64.5Z" fill="#84D0DD"/>
</mask>
<g mask="url(#mask0_1_47)">
<path d="M129 64.5C129 100.122 100.122 129 64.5 129C28.8776 129 0 100.122 0 64.5C0 28.8776 28.8776 0 64.5 0C100.122 0 129 28.8776 129 64.5Z" fill="#84D0DD"/>
<path d="M118 64C118 93.8234 93.8234 118 64 118C34.1766 118 10 93.8234 10 64C10 34.1766 34.1766 10 64 10C93.8234 10 118 34.1766 118 64Z" fill="#141421"/>
<path fill-rule="evenodd" clip-rule="evenodd" d="M110.555 17.4446L64 64L54.8076 54.8076L101.363 8.25217L110.555 17.4446Z" fill="#141421"/>
<path fill-rule="evenodd" clip-rule="evenodd" d="M72 56L72 129L59 129L59 56L72 56Z" fill="#141421"/>
<path fill-rule="evenodd" clip-rule="evenodd" d="M72 7L72 80L59 80L59 7L72 7Z" fill="#84D0DD"/>
<path fill-rule="evenodd" clip-rule="evenodd" d="M106 106L64 64L73.1924 54.8076L115.192 96.8076L106 106Z" fill="#84D0DD"/>
<path d="M104 64.5C104 86.3152 86.3152 104 64.5 104C42.6848 104 25 86.3152 25 64.5C25 42.6848 42.6848 25 64.5 25C86.3152 25 104 42.6848 104 64.5Z" fill="#84D0DD"/>
<path d="M94 64.5C94 80.7924 80.7924 94 64.5 94C48.2076 94 35 80.7924 35 64.5C35 48.2076 48.2076 35 64.5 35C80.7924 35 94 48.2076 94 64.5Z" fill="#141421"/>
<path fill-rule="evenodd" clip-rule="evenodd" d="M21 60L64 60L64 73L21 73L21 60Z" fill="#141421"/>
<path d="M80 64C80 72.8366 72.8366 80 64 80C55.1634 80 48 72.8366 48 64C48 55.1634 55.1634 48 64 48C72.8366 48 80 55.1634 80 64Z" fill="#84D0DD"/>
</g>
</svg>
